<?xml version="1.0" encoding="UTF-8" ?>
<!DOCTYPE svg PUBLIC "-//W3C//DTD SVG 1.1//EN" "http://www.w3.org/Graphics/SVG/1.1/DTD/svg11.dtd">
<svg width="109pt" height="96pt" viewBox="0 0 109 96" version="1.1" xmlns="http://www.w3.org/2000/svg">
<g id="#ffffffff">
</g>
<g id="#3bbca7ff">
<path fill="#3bbca7" opacity="1.00" d=" M 31.40 20.20 C 33.55 19.47 35.90 19.12 38.11 19.83 C 38.47 27.55 38.14 35.28 38.34 43.00 C 38.45 45.99 37.88 48.94 37.13 51.82 C 35.14 47.77 33.12 43.73 31.23 39.62 C 32.73 33.29 32.75 26.70 31.42 20.34 L 31.40 20.20 Z" />
</g>
<g id="#54bd9eff">
<path fill="#54bd9e" opacity="1.00" d=" M 38.11 19.83 C 41.82 20.80 43.87 24.41 45.20 27.71 C 44.09 40.67 45.72 53.74 44.22 66.66 C 41.82 61.73 39.40 56.80 37.13 51.82 C 37.88 48.94 38.45 45.99 38.34 43.00 C 38.14 35.28 38.47 27.55 38.11 19.83 Z" />
</g>
<g id="#87c378ff">
<path fill="#87c378" opacity="1.00" d=" M 63.29 23.35 C 66.31 18.60 73.70 18.19 77.50 22.23 L 77.51 22.51 C 76.45 35.09 77.94 47.76 76.58 60.33 C 72.70 52.51 69.02 44.61 65.18 36.78 C 64.45 35.39 63.72 33.78 62.01 33.41 C 60.59 33.66 59.19 34.01 57.81 34.45 C 59.48 30.68 61.17 26.88 63.29 23.35 Z" />
</g>
<g id="#21bab0ff">
<path fill="#21bab0" opacity="1.00" d=" M 22.36 34.48 C 25.09 29.66 26.24 23.22 31.42 20.34 C 32.75 26.70 32.73 33.29 31.23 39.62 C 29.99 37.52 29.46 34.59 27.01 33.53 C 25.43 33.65 23.89 33.97 22.36 34.48 Z" />
</g>
<g id="#92c66cff">
<path fill="#92c66c" opacity="1.00" d=" M 76.58 60.33 C 77.94 47.76 76.45 35.09 77.51 22.51 C 78.58 23.52 79.24 24.85 79.86 26.16 C 85.56 38.09 91.37 49.97 97.04 61.91 C 97.79 63.47 98.46 65.14 99.79 66.31 C 101.68 67.40 103.65 65.89 105.50 65.52 C 103.12 70.03 101.39 75.08 97.80 78.82 C 93.65 82.61 86.68 80.60 84.12 75.93 C 81.48 70.79 79.01 65.56 76.58 60.33 Z" />
</g>
<g id="#66bf93ff">
<path fill="#66bf93" opacity="1.00" d=" M 45.20 27.71 C 47.67 32.67 50.04 37.68 52.38 42.70 C 51.41 54.73 53.18 66.89 51.33 78.84 C 47.69 75.70 46.46 70.76 44.22 66.66 C 45.72 53.74 44.09 40.67 45.20 27.71 Z" />
</g>
<g id="#71c08aff">
<path fill="#71c08a" opacity="1.00" d=" M 52.38 42.70 C 55.16 48.35 57.92 54.03 60.58 59.74 C 59.37 66.47 60.11 73.31 59.83 80.10 L 59.81 80.39 C 56.92 81.18 53.76 80.67 51.32 78.92 L 51.33 78.84 C 53.18 66.89 51.41 54.73 52.38 42.70 Z" />
</g>
<g id="#00b4d2ff">
<path fill="#00b4d2" opacity="1.00" d=" M 9.18 61.19 C 10.75 58.45 11.43 54.61 14.88 53.60 C 15.42 62.49 15.13 71.40 15.00 80.29 C 9.98 78.77 8.53 73.25 6.51 69.04 C 6.02 66.12 8.18 63.76 9.18 61.19 Z" />
</g>
<g id="#02b7c4ff">
<path fill="#02b7c4" opacity="1.00" d=" M 14.88 53.60 C 16.82 53.36 18.96 54.26 19.85 56.06 C 21.49 59.42 23.10 62.81 24.88 66.07 C 24.68 69.58 24.96 73.09 25.45 76.56 C 23.39 80.04 18.80 81.58 15.00 80.29 C 15.13 71.40 15.42 62.49 14.88 53.60 Z" />
</g>
<g id="#7bc281ff">
<path fill="#7bc281" opacity="1.00" d=" M 60.58 59.74 C 61.92 61.96 62.52 64.73 64.61 66.42 C 66.47 67.36 68.40 65.98 70.12 65.41 C 68.31 69.36 66.40 73.27 64.15 77.00 C 63.08 78.41 61.65 79.79 59.83 80.10 C 60.11 73.31 59.37 66.47 60.58 59.74 Z" />
</g>
<g id="#14b9b6ff">
<path fill="#14b9b6" opacity="1.00" d=" M 24.88 66.07 C 26.90 67.40 29.07 66.33 31.05 65.52 C 29.31 69.26 27.53 73.00 25.45 76.56 C 24.96 73.09 24.68 69.58 24.88 66.07 Z" />
</g>
</svg>
