<?xml version="1.0" encoding="UTF-8" ?>
<!DOCTYPE svg PUBLIC "-//W3C//DTD SVG 1.1//EN" "http://www.w3.org/Graphics/SVG/1.1/DTD/svg11.dtd">
<svg width="294pt" height="73pt" viewBox="0 0 294 73" version="1.1" xmlns="http://www.w3.org/2000/svg">
<g>
<path fill="#ffffff" opacity="1.00" d=" M 172.00 8.00 C 174.67 8.00 177.33 8.00 180.00 8.00 C 180.00 21.67 180.00 35.33 180.00 49.00 C 177.33 49.00 174.67 49.00 172.00 49.00 C 172.00 35.33 172.00 21.67 172.00 8.00 Z" />
<path fill="#ffffff" opacity="1.00" d=" M 240.35 7.93 C 242.84 7.90 245.34 7.90 247.85 7.90 C 247.84 21.42 247.85 34.93 247.84 48.45 C 245.43 48.45 243.01 48.45 240.60 48.44 C 240.63 47.80 240.69 46.52 240.72 45.88 C 235.14 50.23 226.36 49.69 221.63 44.34 C 216.78 39.08 216.56 30.33 220.45 24.47 C 224.77 18.13 234.34 16.79 240.42 21.38 C 240.32 16.89 240.39 12.41 240.35 7.93 M 229.26 26.27 C 222.96 29.67 224.49 41.39 232.05 41.96 C 237.46 42.86 241.52 37.07 240.35 32.08 C 240.01 26.87 233.74 23.68 229.26 26.27 Z" />
<path fill="#ffffff" opacity="1.00" d=" M 86.60 18.95 C 89.01 18.95 91.42 18.95 93.84 18.95 C 93.82 19.57 93.77 20.81 93.75 21.43 C 98.97 17.48 107.11 17.61 111.49 22.77 C 115.19 19.07 120.92 17.66 125.91 19.29 C 130.17 20.52 132.96 24.78 133.21 29.09 C 133.62 35.53 133.27 42.00 133.38 48.45 C 130.88 48.45 128.37 48.45 125.86 48.45 C 125.81 42.96 125.94 37.47 125.83 31.99 C 125.74 29.77 125.18 26.99 122.86 26.08 C 119.21 24.31 114.38 26.84 114.00 30.93 C 113.43 36.75 113.93 42.62 113.73 48.46 C 111.23 48.45 108.73 48.45 106.24 48.45 C 105.95 42.00 106.81 35.46 105.74 29.08 C 104.30 23.72 95.55 24.83 94.59 30.01 C 93.55 36.08 94.40 42.31 94.12 48.45 C 91.61 48.45 89.11 48.45 86.60 48.45 C 86.60 38.62 86.60 28.78 86.60 18.95 Z" />
<path fill="#ffffff" opacity="1.00" d=" M 144.27 21.26 C 150.07 17.19 159.07 17.80 163.70 23.39 C 166.92 26.87 167.43 31.87 167.25 36.39 C 160.06 36.42 152.87 36.34 145.69 36.44 C 147.95 43.12 157.26 43.70 161.63 38.82 C 162.98 40.49 164.35 42.14 165.70 43.80 C 159.44 50.84 146.80 50.49 141.12 42.91 C 136.34 36.41 137.52 25.99 144.27 21.26 M 145.60 30.80 C 150.49 30.87 155.37 30.89 160.26 30.78 C 159.11 28.13 157.19 25.40 154.05 25.16 C 150.14 24.35 146.70 27.21 145.60 30.80 Z" />
<path fill="#ffffff" opacity="1.00" d=" M 194.37 19.56 C 199.51 17.79 205.72 18.51 209.91 22.13 C 216.71 27.70 216.72 39.45 210.06 45.14 C 203.85 50.71 192.90 49.90 187.87 43.11 C 181.90 35.60 184.94 22.60 194.37 19.56 M 196.31 26.23 C 190.03 29.59 191.43 41.33 198.98 41.95 C 204.48 42.93 208.55 37.11 207.33 32.06 C 207.06 26.81 200.77 23.73 196.31 26.23 Z" />
<path fill="#ffffff" opacity="1.00" d=" M 257.92 20.85 C 263.69 17.27 272.20 17.97 276.68 23.33 C 279.94 26.80 280.49 31.84 280.28 36.39 C 273.09 36.43 265.90 36.33 258.71 36.44 C 261.00 43.11 270.29 43.71 274.66 38.82 C 276.02 40.48 277.38 42.13 278.74 43.80 C 272.48 50.84 259.83 50.48 254.16 42.91 C 249.21 36.21 250.66 25.34 257.92 20.85 M 258.64 30.81 C 263.52 30.87 268.40 30.88 273.28 30.79 C 272.12 27.71 269.53 24.87 265.97 25.06 C 262.39 24.84 259.70 27.65 258.64 30.81 Z" />
<path fill="#ffffff" opacity="1.00" d=" M 31.36 15.88 C 34.27 15.65 37.06 16.71 38.46 19.41 C 36.80 26.71 37.68 34.23 37.30 41.65 C 35.09 36.97 32.29 32.45 30.68 27.56 C 31.17 23.80 31.61 20.01 31.37 16.22 L 31.36 15.88 Z" />
<path fill="#ffffff" opacity="1.00" d=" M 46.77 24.87 C 48.61 21.05 50.16 15.95 55.19 15.59 C 55.54 21.52 55.36 27.46 54.73 33.36 C 53.13 30.40 51.72 27.34 50.07 24.40 C 49.25 24.52 47.60 24.75 46.77 24.87 Z" />
</g>
</svg>

